{
  "accessors": [
    {
      "bufferView": 2,
      "componentType": 5126,
      "count": 8536,
      "max": [
        3.6914515495300293,
        3.3330445289611816,
        1.7973048686981201
      ],
      "min": [
        -3.3330442905426025,
        -3.915027379989624,
        -3.537363052368164
      ],
      "type": "VEC3"
    },
    {
      "bufferView": 2,
      "byteOffset": 102432,
      "componentType": 5126,
      "count": 8536,
      "max": [
        1.0,
        1.0,
        1.0
      ],
      "min": [
        -1.0,
        -1.0,
        -1.0
      ],
      "type": "VEC3"
    },
    {
      "bufferView": 1,
      "componentType": 5126,
      "count": 8536,
      "max": [
        1.0000005960464478,
        1.0167908668518066
      ],
      "min": [
        -0.0013952369336038828,
        0.0
      ],
      "type": "VEC2"
    },
    {
      "bufferView": 0,
      "componentType": 5125,
      "count": 14517,
      "type": "SCALAR"
    },
    {
      "bufferView": 2,
      "byteOffset": 204864,
      "componentType": 5126,
      "count": 1648,
      "max": [
        3.2439322471618652,
        3.243931770324707,
        0.8380618095397949
      ],
      "min": [
        -3.243931531906128,
        -3.2439327239990234,
        -1.606816053390503
      ],
      "type": "VEC3"
    },
    {
      "bufferView": 2,
      "byteOffset": 224640,
      "componentType": 5126,
      "count": 1648,
      "max": [
        0.9998655319213867,
        0.9998655319213867,
        1.0
      ],
      "min": [
        -0.9999997019767761,
        -0.9998655319213867,
        -0.999967634677887
      ],
      "type": "VEC3"
    },
    {
      "bufferView": 1,
      "byteOffset": 68288,
      "componentType": 5126,
      "count": 1648,
      "max": [
        1.0,
        1.0
      ],
      "min": [
        0.0,
        0.0
      ],
      "type": "VEC2"
    },
    {
      "bufferView": 0,
      "byteOffset": 58068,
      "componentType": 5125,
      "count": 2562,
      "type": "SCALAR"
    },
    {
      "bufferView": 2,
      "byteOffset": 244416,
      "componentType": 5126,
      "count": 978,
      "max": [
        2.032667398452759,
        2.0326666831970215,
        -0.38993576169013977
      ],
      "min": [
        -2.0326662063598633,
        -2.0326669216156006,
        -0.7537175416946411
      ],
      "type": "VEC3"
    },
    {
      "bufferView": 2,
      "byteOffset": 256152,
      "componentType": 5126,
      "count": 978,
      "max": [
        1.0,
        1.0,
        0.943355917930603
      ],
      "min": [
        -1.0,
        -1.0,
        -0.9953959584236145
      ],
      "type": "VEC3"
    },
    {
      "bufferView": 1,
      "byteOffset": 81472,
      "componentType": 5126,
      "count": 978,
      "max": [
        0.9985741376876831,
        0.5000001192092896
      ],
      "min": [
        1.0408338084744173e-06,
        0.49999988079071045
      ],
      "type": "VEC2"
    },
    {
      "bufferView": 0,
      "byteOffset": 68316,
      "componentType": 5125,
      "count": 1608,
      "type": "SCALAR"
    },
    {
      "bufferView": 2,
      "byteOffset": 267888,
      "componentType": 5126,
      "count": 1027,
      "max": [
        3.3071160316467285,
        2.090898275375366,
        0.9260232448577881
      ],
      "min": [
        -2.090897560119629,
        -3.5183377265930176,
        -2.354166030883789
      ],
      "type": "VEC3"
    },
    {
      "bufferView": 2,
      "byteOffset": 280212,
      "componentType": 5126,
      "count": 1027,
      "max": [
        1.0,
        1.0,
        1.0
      ],
      "min": [
        -1.0,
        -1.0,
        -1.0
      ],
      "type": "VEC3"
    },
    {
      "bufferView": 1,
      "byteOffset": 89296,
      "componentType": 5126,
      "count": 1027,
      "max": [
        1.0,
        0.8111906051635742
      ],
      "min": [
        0.0,
        0.0
      ],
      "type": "VEC2"
    },
    {
      "bufferView": 0,
      "byteOffset": 74748,
      "componentType": 5125,
      "count": 1620,
      "type": "SCALAR"
    },
    {
      "bufferView": 2,
      "byteOffset": 292536,
      "componentType": 5126,
      "count": 903,
      "max": [
        3.5702242851257324,
        3.3645424842834473,
        1.8330843448638916
      ],
      "min": [
        -3.364542007446289,
        -3.8059298992156982,
        -2.5992183685302734
      ],
      "type": "VEC3"
    },
    {
      "bufferView": 2,
      "byteOffset": 303372,
      "componentType": 5126,
      "count": 903,
      "max": [
        1.0,
        1.0,
        1.0
      ],
      "min": [
        -1.0,
        -1.0,
        -1.0
      ],
      "type": "VEC3"
    },
    {
      "bufferView": 1,
      "byteOffset": 97512,
      "componentType": 5126,
      "count": 903,
      "max": [
        0.9575684070587158,
        0.8850057125091553
      ],
      "min": [
        0.0,
        0.0
      ],
      "type": "VEC2"
    },
    {
      "bufferView": 0,
      "byteOffset": 81228,
      "componentType": 5125,
      "count": 1359,
      "type": "SCALAR"
    }
  ],
  "asset": {
    "extras": {
      "author": "Liberi Arcano (https://sketchfab.com/LiberiArcano)",
      "license": "CC-BY-4.0 (http://creativecommons.org/licenses/by/4.0/)",
      "source": "https://sketchfab.com/3d-models/3december-2021-day-7-space-station-d94ef3bc0ea44c59849d1f4110276e64",
      "title": "3December 2021 Day 7: Space Station"
    },
    "generator": "Sketchfab-12.67.0",
    "version": "2.0"
  },
  "bufferViews": [
    {
      "buffer": 0,
      "byteLength": 86664,
      "name": "floatBufferViews",
      "target": 34963
    },
    {
      "buffer": 0,
      "byteLength": 104736,
      "byteOffset": 86664,
      "byteStride": 8,
      "name": "floatBufferViews",
      "target": 34962
    },
    {
      "buffer": 0,
      "byteLength": 314208,
      "byteOffset": 191400,
      "byteStride": 12,
      "name": "floatBufferViews",
      "target": 34962
    }
  ],
  "buffers": [
    {
      "byteLength": 505608,
      "uri": "scene.bin"
    }
  ],
  "materials": [
    {
      "doubleSided": true,
      "name": "Station_Base",
      "pbrMetallicRoughness": {
        "baseColorFactor": [
          0.0879759,
          0.106774,
          0.187812,
          1.0
        ],
        "roughnessFactor": 0.482435261
      }
    },
    {
      "doubleSided": true,
      "name": "White",
      "pbrMetallicRoughness": {
        "baseColorFactor": [
          0.8,
          0.8,
          0.8,
          1.0
        ],
        "metallicFactor": 0.0
      }
    },
    {
      "doubleSided": true,
      "name": "Station_Secondary",
      "pbrMetallicRoughness": {
        "baseColorFactor": [
          0.562959,
          0.105517,
          0.0033239,
          1.0
        ],
        "roughnessFactor": 0.5188514249
      }
    },
    {
      "doubleSided": true,
      "emissiveFactor": [
        0.0,
        1.0,
        1.0
      ],
      "name": "BlueLight",
      "pbrMetallicRoughness": {
        "baseColorFactor": [
          0.0117302,
          0.46898,
          0.8,
          1.0
        ],
        "metallicFactor": 0.0,
        "roughnessFactor": 0.9115258703
      }
    },
    {
      "doubleSided": true,
      "emissiveFactor": [
        1.0,
        0.0,
        0.009968830000000001
      ],
      "name": "RedLight",
      "pbrMetallicRoughness": {
        "baseColorFactor": [
          0.8,
          0.00589378,
          0.0,
          1.0
        ],
        "metallicFactor": 0.0,
        "roughnessFactor": 0.9610264014
      }
    }
  ],
  "meshes": [
    {
      "name": "Sphere_Station_Base_0",
      "primitives": [
        {
          "attributes": {
            "NORMAL": 1,
            "POSITION": 0,
            "TEXCOORD_0": 2
          },
          "indices": 3,
          "material": 0,
          "mode": 4
        }
      ]
    },
    {
      "name": "Sphere_White_0",
      "primitives": [
        {
          "attributes": {
            "NORMAL": 5,
            "POSITION": 4,
            "TEXCOORD_0": 6
          },
          "indices": 7,
          "material": 1,
          "mode": 4
        }
      ]
    },
    {
      "name": "Sphere_Station_Secondary_0",
      "primitives": [
        {
          "attributes": {
            "NORMAL": 9,
            "POSITION": 8,
            "TEXCOORD_0": 10
          },
          "indices": 11,
          "material": 2,
          "mode": 4
        }
      ]
    },
    {
      "name": "Sphere_BlueLight_0",
      "primitives": [
        {
          "attributes": {
            "NORMAL": 13,
            "POSITION": 12,
            "TEXCOORD_0": 14
          },
          "indices": 15,
          "material": 3,
          "mode": 4
        }
      ]
    },
    {
      "name": "Sphere_RedLight_0",
      "primitives": [
        {
          "attributes": {
            "NORMAL": 17,
            "POSITION": 16,
            "TEXCOORD_0": 18
          },
          "indices": 19,
          "material": 4,
          "mode": 4
        }
      ]
    }
  ],
  "nodes": [
    {
      "children": [
        1
      ],
      "matrix": [
        1.0,
        0.0,
        0.0,
        0.0,
        0.0,
        2.220446049250313e-16,
        -1.0,
        0.0,
        0.0,
        1.0,
        2.220446049250313e-16,
        0.0,
        0.0,
        0.0,
        0.0,
        1.0
      ],
      "name": "Sketchfab_model"
    },
    {
      "children": [
        2
      ],
      "matrix": [
        0.009999999776482582,
        0.0,
        0.0,
        0.0,
        0.0,
        0.0,
        0.009999999776482582,
        0.0,
        0.0,
        -0.009999999776482582,
        0.0,
        0.0,
        0.0,
        0.0,
        0.0,
        1.0
      ],
      "name": "34ea0d41d0364fc983b3111041382f65.fbx"
    },
    {
      "children": [
        3
      ],
      "name": "RootNode"
    },
    {
      "children": [
        4,
        5,
        6,
        7,
        8
      ],
      "matrix": [
        100.0,
        0.0,
        0.0,
        0.0,
        0.0,
        -1.629206793918314e-05,
        -99.99999999999868,
        0.0,
        0.0,
        99.99999999999868,
        -1.629206793918314e-05,
        0.0,
        0.0,
        151.6328125,
        0.0,
        1.0
      ],
      "name": "Sphere"
    },
    {
      "mesh": 0,
      "name": "Sphere_Station_Base_0"
    },
    {
      "mesh": 1,
      "name": "Sphere_White_0"
    },
    {
      "mesh": 2,
      "name": "Sphere_Station_Secondary_0"
    },
    {
      "mesh": 3,
      "name": "Sphere_BlueLight_0"
    },
    {
      "mesh": 4,
      "name": "Sphere_RedLight_0"
    }
  ],
  "scene": 0,
  "scenes": [
    {
      "name": "Sketchfab_Scene",
      "nodes": [
        0
      ]
    }
  ]
}
