{
  "accessors": [
    {
      "bufferView": 2,
      "componentType": 5126,
      "count": 12329,
      "max": [
        7.55878210067749,
        11.739956855773926,
        2.288621425628662
      ],
      "min": [
        -7.55878210067749,
        -7.809595108032227,
        -1.1127790212631226
      ],
      "type": "VEC3"
    },
    {
      "bufferView": 2,
      "byteOffset": 147948,
      "componentType": 5126,
      "count": 12329,
      "max": [
        1.0,
        1.0,
        1.0
      ],
      "min": [
        -1.0,
        -1.0,
        -1.0
      ],
      "type": "VEC3"
    },
    {
      "bufferView": 1,
      "componentType": 5126,
      "count": 12329,
      "max": [
        1.0,
        1.0
      ],
      "min": [
        0.0,
        0.0
      ],
      "type": "VEC2"
    },
    {
      "bufferView": 0,
      "componentType": 5125,
      "count": 19236,
      "type": "SCALAR"
    },
    {
      "bufferView": 2,
      "byteOffset": 295896,
      "componentType": 5126,
      "count": 488,
      "max": [
        7.449973106384277,
        9.131776809692383,
        0.8753600120544434
      ],
      "min": [
        -7.449973106384277,
        -6.747387409210205,
        -0.521350622177124
      ],
      "type": "VEC3"
    },
    {
      "bufferView": 2,
      "byteOffset": 301752,
      "componentType": 5126,
      "count": 488,
      "max": [
        1.0,
        0.013255289755761623,
        1.0
      ],
      "min": [
        -1.0,
        -0.0546310730278492,
        -0.999151885509491
      ],
      "type": "VEC3"
    },
    {
      "bufferView": 1,
      "byteOffset": 98632,
      "componentType": 5126,
      "count": 488,
      "max": [
        0.6250001192092896,
        0.7483640313148499
      ],
      "min": [
        0.046311575919389725,
        0.046311501413583755
      ],
      "type": "VEC2"
    },
    {
      "bufferView": 0,
      "byteOffset": 76944,
      "componentType": 5125,
      "count": 732,
      "type": "SCALAR"
    },
    {
      "bufferView": 2,
      "byteOffset": 307608,
      "componentType": 5126,
      "count": 164,
      "max": [
        7.4093780517578125,
        10.941427230834961,
        1.5511029958724976
      ],
      "min": [
        -7.4093780517578125,
        -6.816890716552734,
        -0.5576291084289551
      ],
      "type": "VEC3"
    },
    {
      "bufferView": 2,
      "byteOffset": 309576,
      "componentType": 5126,
      "count": 164,
      "max": [
        1.0,
        1.0,
        0.6957915425300598
      ],
      "min": [
        -1.0,
        -1.0,
        -1.0
      ],
      "type": "VEC3"
    },
    {
      "bufferView": 1,
      "byteOffset": 102536,
      "componentType": 5126,
      "count": 164,
      "max": [
        0.7391022443771362,
        0.7136908769607544
      ],
      "min": [
        0.2628471851348877,
        0.3878471553325653
      ],
      "type": "VEC2"
    },
    {
      "bufferView": 0,
      "byteOffset": 79872,
      "componentType": 5125,
      "count": 300,
      "type": "SCALAR"
    },
    {
      "bufferView": 2,
      "byteOffset": 311544,
      "componentType": 5126,
      "count": 128,
      "max": [
        6.042243480682373,
        9.571100234985352,
        0.2752545177936554
      ],
      "min": [
        -6.042243480682373,
        9.12581729888916,
        -0.2752545177936554
      ],
      "type": "VEC3"
    },
    {
      "bufferView": 2,
      "byteOffset": 313080,
      "componentType": 5126,
      "count": 128,
      "max": [
        0.09125444293022156,
        0.9958280324935913,
        2.290952352268505e-06
      ],
      "min": [
        -0.09125448763370514,
        0.9958276748657227,
        -1.8410891016173991e-06
      ],
      "type": "VEC3"
    },
    {
      "bufferView": 1,
      "byteOffset": 103848,
      "componentType": 5126,
      "count": 128,
      "max": [
        0.5508219003677368,
        0.5
      ],
      "min": [
        0.4491780698299408,
        0.49999988079071045
      ],
      "type": "VEC2"
    },
    {
      "bufferView": 0,
      "byteOffset": 81072,
      "componentType": 5125,
      "count": 192,
      "type": "SCALAR"
    }
  ],
  "asset": {
    "extras": {
      "author": "ElliotKing (https://sketchfab.com/ElliotKing)",
      "license": "CC-BY-4.0 (http://creativecommons.org/licenses/by/4.0/)",
      "source": "https://sketchfab.com/3d-models/space-ship-02b37fbbcdab4062ba77fd53c3eb6aaa",
      "title": "Space ship"
    },
    "generator": "Sketchfab-15.22.0",
    "version": "2.0"
  },
  "bufferViews": [
    {
      "buffer": 0,
      "byteLength": 81840,
      "name": "floatBufferViews",
      "target": 34963
    },
    {
      "buffer": 0,
      "byteLength": 104872,
      "byteOffset": 81840,
      "byteStride": 8,
      "name": "floatBufferViews",
      "target": 34962
    },
    {
      "buffer": 0,
      "byteLength": 314616,
      "byteOffset": 186712,
      "byteStride": 12,
      "name": "floatBufferViews",
      "target": 34962
    }
  ],
  "buffers": [
    {
      "byteLength": 501328,
      "uri": "scene.bin"
    }
  ],
  "extensionsUsed": [
    "KHR_materials_emissive_strength",
    "KHR_materials_specular"
  ],
  "materials": [
    {
      "doubleSided": true,
      "name": "Material.001",
      "pbrMetallicRoughness": {
        "baseColorFactor": [
          0.022066747785793143,
          0.026029137627341586,
          0.028863290822882724,
          1.0
        ],
        "metallicFactor": 0.29115853658536583,
        "roughnessFactor": 0.11432926829268293
      }
    },
    {
      "doubleSided": true,
      "extensions": {
        "KHR_materials_emissive_strength": {
          "emissiveStrength": 4.070121951219512
        },
        "KHR_materials_specular": {
          "specularColorFactor": [
            1.0,
            1.0,
            1.0
          ],
          "specularFactor": 0.4557926829268293
        }
      },
      "name": "Material.002",
      "pbrMetallicRoughness": {
        "baseColorFactor": [
          0.09509351829268292,
          0.0031408382317073143,
          0.004278474847560981,
          1.0
        ],
        "metallicFactor": 0.6082317073170732,
        "roughnessFactor": 0.6234756097560976
      }
    },
    {
      "alphaMode": "BLEND",
      "doubleSided": true,
      "name": "Material.004",
      "pbrMetallicRoughness": {
        "baseColorFactor": [
          0.0,
          0.0,
          0.0,
          0.9314024390243902
        ],
        "metallicFactor": 0.0
      }
    },
    {
      "doubleSided": true,
      "extensions": {
        "KHR_materials_specular": {
          "specularColorFactor": [
            1.0,
            1.0,
            1.0
          ],
          "specularFactor": 0.01676829268292683
        }
      },
      "name": "Material.003",
      "pbrMetallicRoughness": {
        "baseColorFactor": [
          0.0065878500000000045,
          0.01635469999999999,
          0.517334,
          1.0
        ],
        "metallicFactor": 0.0,
        "roughnessFactor": 0.9887192666641539
      }
    }
  ],
  "meshes": [
    {
      "name": "Cube_Material.001_0",
      "primitives": [
        {
          "attributes": {
            "NORMAL": 1,
            "POSITION": 0,
            "TEXCOORD_0": 2
          },
          "indices": 3,
          "material": 0,
          "mode": 4
        }
      ]
    },
    {
      "name": "Cube_Material.002_0",
      "primitives": [
        {
          "attributes": {
            "NORMAL": 5,
            "POSITION": 4,
            "TEXCOORD_0": 6
          },
          "indices": 7,
          "material": 1,
          "mode": 4
        }
      ]
    },
    {
      "name": "Cube_Material.004_0",
      "primitives": [
        {
          "attributes": {
            "NORMAL": 9,
            "POSITION": 8,
            "TEXCOORD_0": 10
          },
          "indices": 11,
          "material": 2,
          "mode": 4
        }
      ]
    },
    {
      "name": "Cube_Material.003_0",
      "primitives": [
        {
          "attributes": {
            "NORMAL": 13,
            "POSITION": 12,
            "TEXCOORD_0": 14
          },
          "indices": 15,
          "material": 3,
          "mode": 4
        }
      ]
    }
  ],
  "nodes": [
    {
      "children": [
        1
      ],
      "matrix": [
        1.0,
        0.0,
        0.0,
        0.0,
        0.0,
        2.220446049250313e-16,
        -1.0,
        0.0,
        0.0,
        1.0,
        2.220446049250313e-16,
        0.0,
        0.0,
        0.0,
        0.0,
        1.0
      ],
      "name": "Sketchfab_model"
    },
    {
      "children": [
        2
      ],
      "matrix": [
        0.009999999776482582,
        0.0,
        0.0,
        0.0,
        0.0,
        0.0,
        0.009999999776482582,
        0.0,
        0.0,
        -0.009999999776482582,
        0.0,
        0.0,
        0.0,
        0.0,
        0.0,
        1.0
      ],
      "name": "283e199b6d2747fabae27d37471578c8.fbx"
    },
    {
      "children": [
        3
      ],
      "name": "RootNode"
    },
    {
      "children": [
        4,
        5,
        6,
        7
      ],
      "matrix": [
        100.0,
        0.0,
        0.0,
        0.0,
        0.0,
        -1.629206793918314e-05,
        -99.99999999999868,
        0.0,
        0.0,
        99.99999999999868,
        -1.629206793918314e-05,
        0.0,
        0.0,
        0.0,
        0.0,
        1.0
      ],
      "name": "Cube"
    },
    {
      "mesh": 0,
      "name": "Cube_Material.001_0"
    },
    {
      "mesh": 1,
      "name": "Cube_Material.002_0"
    },
    {
      "mesh": 2,
      "name": "Cube_Material.004_0"
    },
    {
      "mesh": 3,
      "name": "Cube_Material.003_0"
    }
  ],
  "scene": 0,
  "scenes": [
    {
      "name": "Sketchfab_Scene",
      "nodes": [
        0
      ]
    }
  ]
}
